<?xml version="1.0" encoding="UTF-8"?>
<svg width="40" height="40" viewBox="0 0 40 40" xmlns="http://www.w3.org/2000/svg">
  <defs>
    <linearGradient id="gradient" x1="0%" y1="0%" x2="100%" y2="100%">
      <stop offset="0%" style="stop-color:#4285F4;stop-opacity:1" />
      <stop offset="100%" style="stop-color:#34A853;stop-opacity:1" />
    </linearGradient>
  </defs>
  
  <!-- Background circle -->
  <circle cx="20" cy="20" r="18" fill="url(#gradient)" stroke="#ffffff" stroke-width="1"/>
  
  <!-- AI brain icon -->
  <g transform="translate(8, 8)">
    <!-- Brain outline -->
    <path d="M12 2C6.48 2 2 6.48 2 12s4.48 10 10 10 10-4.48 10-10S17.52 2 12 2zM12 20c-4.41 0-8-3.59-8-8s3.59-8 8-8 8 3.59 8 8-3.59 8-8 8z" fill="#ffffff"/>
    
    <!-- Neural network pattern -->
    <circle cx="8" cy="8" r="1.5" fill="#ffffff"/>
    <circle cx="16" cy="8" r="1.5" fill="#ffffff"/>
    <circle cx="8" cy="16" r="1.5" fill="#ffffff"/>
    <circle cx="16" cy="16" r="1.5" fill="#ffffff"/>
    <circle cx="12" cy="12" r="1.5" fill="#ffffff"/>
    
    <!-- Connections -->
    <line x1="8" y1="8" x2="12" y2="12" stroke="#ffffff" stroke-width="1" opacity="0.7"/>
    <line x1="16" y1="8" x2="12" y2="12" stroke="#ffffff" stroke-width="1" opacity="0.7"/>
    <line x1="8" y1="16" x2="12" y2="12" stroke="#ffffff" stroke-width="1" opacity="0.7"/>
    <line x1="16" y1="16" x2="12" y2="12" stroke="#ffffff" stroke-width="1" opacity="0.7"/>
  </g>
  
  <!-- Git commit indicator -->
  <circle cx="32" cy="32" r="4" fill="#FF9800" stroke="#ffffff" stroke-width="1"/>
  <text x="32" y="36" text-anchor="middle" font-family="monospace" font-size="6" fill="#ffffff">C</text>
</svg> 